Coordinates
version=1
nRows=7
nColumns=42
inDegrees=yes

Units are S.I. units (second, meters, Newtons, ...)
If the header above contains a line with 'inDegrees', this indicates whether rotational values are in degrees (yes) or radians (no).

endheader
time	pelvis_tilt	pelvis_list	pelvis_rotation	pelvis_tx	pelvis_ty	pelvis_tz	hip_flexion_r	hip_adduction_r	hip_rotation_r	knee_angle_r	knee_adduction_r	knee_angle_r_beta	ankle_angle_r	subtalar_angle_r	mtp_angle_r	hip_flexion_l	hip_adduction_l	hip_rotation_l	knee_angle_l	knee_adduction_l	knee_angle_l_beta	ankle_angle_l	subtalar_angle_l	mtp_angle_l	lumbar_extension	lumbar_bending	lumbar_rotation	arm_flex_r	arm_add_r	arm_rot_r	elbow_flex_r	pro_sup_r	wrist_flex_r	wrist_dev_r	arm_flex_l	arm_add_l	arm_rot_l	elbow_flex_l	pro_sup_l	wrist_flex_l	wrist_dev_l
      1.02000000	     14.42463633	     -3.24926044	      1.23081673	     -1.27558721	      0.86611157	      0.10356701	      7.71595598	      8.48516799	     -6.37259905	     26.40122745	     -5.39694374	      0.46078835	      8.14092070	     -3.65640501	     -7.57288969	    -29.29694321	     -6.68589677	    -20.85561772	     36.84926257	     -4.88706476	      0.64314096	     -2.68156444	      8.05723821	     -7.57288969	    -26.76526353	      1.82561425	     -2.55592388	     -2.26171064	     -2.00539010	    -21.41142643	     34.05342495	     90.00000001	      0.00000000	      0.00000000	     -0.07338901	     -3.18897470	    -13.64627058	     41.46791935	     90.00000001	      0.00000000	      0.00000000
      1.03000000	     14.92516344	     -3.73730857	      0.98178546	     -1.26258417	      0.86781920	      0.10458997	      6.08611223	      9.01035294	     -6.98332276	     26.12224245	     -5.50296934	      0.45591914	      9.31758210	     -2.04732640	     -7.56681785	    -28.64206092	     -7.05654409	    -19.10447227	     39.97214478	     -4.60141481	      0.69764554	     -4.48611847	      3.69915506	     -7.56681785	    -27.18458850	      2.31724445	     -2.09852139	     -2.12458715	     -2.33657677	    -20.28504795	     34.67287372	     90.00000001	      0.00000000	      0.00000000	     -0.60502042	     -2.95535398	    -14.33649618	     41.36824628	     90.00000001	      0.00000000	      0.00000000
      1.04000000	     15.10744202	     -4.14515749	      0.85651132	     -1.25044142	      0.86926325	      0.10574001	      4.80482105	      9.43867062	     -7.57175644	     25.72308816	     -5.54529119	      0.44895258	     10.32006723	     -0.57691618	     -7.56150345	    -27.22322640	     -7.51083191	    -17.70228118	     43.59376004	     -4.53559676	      0.76085465	     -5.82635476	     -0.10969227	     -7.56150345	    -27.35683288	      2.71424931	     -1.74887861	     -1.91425428	     -2.55844710	    -19.38026185	     35.27616289	     90.00000001	      0.00000000	      0.00000000	     -1.07184653	     -2.82115461	    -14.87288147	     41.33687619	     90.00000001	      0.00000000	      0.00000000
      1.05000000	     15.04477315	     -4.45253988	      0.87407539	     -1.23918497	      0.87051884	      0.10708435	      3.82620759	      9.78387858	     -8.19351500	     25.25550320	     -5.58637240	      0.44079169	     11.14090104	      0.66626839	     -7.55688213	    -25.19241703	     -8.01774323	    -16.42989936	     47.51469194	     -4.57051214	      0.82928782	     -6.62207677	     -3.49419004	     -7.55688213	    -27.37032611	      2.99893515	     -1.55453885	     -1.58396146	     -2.64692330	    -18.62231784	     35.82723027	     90.00000001	      0.00000000	      0.00000000	     -1.47447964	     -2.77297802	    -15.29872334	     41.31365276	     90.00000001	      0.00000000	      0.00000000
      1.06000000	     14.80290707	     -4.77384988	      1.04565957	     -1.22879321	      0.87157942	      0.10869151	      3.05522542	     10.22772326	     -8.59629901	     24.66980889	     -5.60733015	      0.43056939	     11.63204547	      1.11060575	     -7.55538853	    -22.68487598	     -8.71965410	    -15.79092853	     51.53592610	     -5.11041603	      0.89947159	     -6.37800280	     -4.62339460	     -7.55538853	    -27.28907553	      3.28004702	     -1.44401101	     -1.06441327	     -2.59514703	    -18.36895353	     36.29493413	     90.00000001	      0.00000000	      0.00000000	     -1.78736773	     -2.90459404	    -15.39824480	     41.34633976	     90.00000001	      0.00000000	      0.00000000
      1.07000000	     14.56442129	     -4.89113118	      1.26239767	     -1.21900422	      0.87281609	      0.11030562	      2.36562564	     10.40363744	     -9.31608292	     24.14559961	     -5.61905849	      0.42142021	     12.27410089	      2.21407825	     -7.55163712	    -20.11979324	     -9.10461701	    -13.97828966	     55.38553397	     -4.74826286	      0.96665993	     -6.70328305	     -9.22000714	     -7.55163712	    -27.27902153	      3.33421639	     -1.35136399	     -0.64278394	     -2.59003970	    -17.64502831	     36.90252449	     90.00000001	      0.00000000	      0.00000000	     -1.94871714	     -2.99856931	    -15.79380464	     41.44478194	     90.00000001	      0.00000000	      0.00000000
      1.08000000	     14.30945902	     -4.93159567	      1.55235417	     -1.20946592	      0.87411088	      0.11201785	      1.61425225	     10.57157645	     -9.64359704	     23.45512304	     -5.56225737	      0.40936912	     12.61485460	      2.50997036	     -7.55055237	    -17.40895221	     -9.43305529	    -13.42849519	     58.85039788	     -5.54162054	      1.02713321	     -6.06433654	     -9.80312767	     -7.55055237	    -27.27155110	      3.29106803	     -1.38896270	     -0.09830391	     -2.39897654	    -17.42247735	     37.37570585	     90.00000001	      0.00000000	      0.00000000	     -2.13944260	     -3.23981957	    -15.85275979	     41.48620249	     90.00000001	      0.00000000	      0.00000000
